<?xml version="1.0" encoding="UTF-8" standalone="no"?>
<!DOCTYPE svg PUBLIC "-//W3C//DTD SVG 1.1//EN" "http://www.w3.org/Graphics/SVG/1.1/DTD/svg11.dtd">
<svg width="100%" height="100%" viewBox="0 0 2692 1792" version="1.1" xmlns="http://www.w3.org/2000/svg" xmlns:xlink="http://www.w3.org/1999/xlink" xml:space="preserve" xmlns:serif="http://www.serif.com/" style="fill-rule:evenodd;clip-rule:evenodd;stroke-linejoin:round;stroke-miterlimit:2;">
    <g transform="matrix(1,0,0,1,-320.833,-770.667)">
        <g transform="matrix(4.16667,0,0,4.16667,0,0)">
            <g transform="matrix(0.8075,0,0,0.5375,77,184)">
                <rect x="0" y="0" width="800" height="800" style="fill:rgb(239,239,240);fill-rule:nonzero;"/>
            </g>
            <path d="M608.778,493.904C581.593,493.904 559.555,515.941 559.555,543.126L559.555,607.613L658,607.613L658,543.126C658,515.941 635.962,493.904 608.778,493.904Z" style="fill:rgb(54,143,67);fill-rule:nonzero;"/>
            <path d="M703,567.045C703,586.031 687.609,601.422 668.623,601.422C649.637,601.422 634.245,586.031 634.245,567.045C634.245,548.059 649.637,532.668 668.623,532.668C687.609,532.668 703,548.059 703,567.045Z" style="fill:rgb(46,125,61);fill-rule:nonzero;"/>
            <path d="M138.823,578.555C138.823,591.184 128.585,601.422 115.956,601.422C103.327,601.422 93.089,591.184 93.089,578.555C93.089,565.926 103.327,555.689 115.956,555.689C128.585,555.689 138.823,565.926 138.823,578.555Z" style="fill:rgb(27,95,47);fill-rule:nonzero;"/>
            <path d="M213.905,554.176C213.905,580.269 192.752,601.422 166.659,601.422C140.565,601.422 119.413,580.269 119.413,554.176C119.413,528.082 140.565,506.93 166.659,506.93C192.752,506.93 213.905,528.082 213.905,554.176Z" style="fill:rgb(46,125,61);fill-rule:nonzero;"/>
            <rect x="77" y="588.767" width="646" height="26.273" style="fill:rgb(67,67,68);fill-rule:nonzero;"/>
            <rect x="185.254" y="319.184" width="429.491" height="269.583" style="fill:rgb(243,112,70);fill-rule:nonzero;"/>
            <path d="M615.958,572.46L575,572.46L575,588.767L620.667,588.767L620.667,577.168C620.667,574.568 618.559,572.46 615.958,572.46Z" style="fill:rgb(246,248,249);fill-rule:nonzero;"/>
            <rect x="454.333" y="393.793" width="120.667" height="194.974" style="fill:rgb(62,39,35);fill-rule:nonzero;"/>
            <rect x="461.5" y="400.96" width="106.333" height="180.64" style="fill:rgb(127,204,196);fill-rule:nonzero;"/>
            <path d="M567.83,445.659L567.83,456.74L512.05,400.96L523.13,400.96L567.83,445.659Z" style="fill:rgb(179,224,220);fill-rule:nonzero;"/>
            <path d="M567.83,554.56L567.83,565.63L461.5,459.3L461.5,448.23L567.83,554.56Z" style="fill:rgb(179,224,220);fill-rule:nonzero;"/>
            <path d="M567.83,462.63L567.83,484.79L484,400.96L506.16,400.96L567.83,462.63Z" style="fill:rgb(179,224,220);fill-rule:nonzero;"/>
            <path d="M567.833,404.793L526.963,404.793L523.13,400.96L567.833,400.96L567.833,404.793ZM515.883,404.793L509.993,404.793L506.16,400.96L512.05,400.96L515.883,404.793Z" style="fill:rgb(105,169,162);fill-rule:nonzero;"/>
            <path d="M526.963,404.793L515.883,404.793L512.05,400.96L523.13,400.96L526.963,404.793Z" style="fill:rgb(147,184,182);fill-rule:nonzero;"/>
            <path d="M487.833,404.793L461.5,404.793L461.5,400.96L484,400.96L487.833,404.793Z" style="fill:rgb(105,169,162);fill-rule:nonzero;"/>
            <path d="M509.993,404.793L487.833,404.793L484,400.96L506.16,400.96L509.993,404.793Z" style="fill:rgb(147,184,182);fill-rule:nonzero;"/>
            <path d="M497.778,588.767L454.333,588.767L454.333,545.323L461.5,552.49L461.5,581.6L490.611,581.6L497.778,588.767Z" style="fill:rgb(39,24,22);fill-rule:nonzero;"/>
            <path d="M490.611,581.6L461.5,581.6L461.5,552.49L490.611,581.6Z" style="fill:rgb(83,133,129);fill-rule:nonzero;"/>
            <path d="M478.958,478.626C478.958,481.158 476.906,483.21 474.375,483.21C471.844,483.21 469.792,481.158 469.792,478.626C469.792,476.095 471.844,474.043 474.375,474.043C476.906,474.043 478.958,476.095 478.958,478.626Z" style="fill:rgb(225,225,224);fill-rule:nonzero;"/>
            <path d="M478.958,511.46C478.958,513.992 476.906,516.044 474.375,516.044C471.844,516.044 469.792,513.992 469.792,511.46C469.792,508.928 471.844,506.876 474.375,506.876C476.906,506.876 478.958,508.928 478.958,511.46Z" style="fill:rgb(225,225,224);fill-rule:nonzero;"/>
            <path d="M474.375,475.043C472.925,475.043 471.75,476.218 471.75,477.668L471.75,512.419C471.75,513.868 472.925,515.044 474.375,515.044C475.825,515.044 477,513.868 477,512.419L477,477.668C477,476.218 475.825,475.043 474.375,475.043Z" style="fill:rgb(246,248,249);fill-rule:nonzero;"/>
            <path d="M454.333,572.459L184.042,572.459C181.441,572.459 179.333,574.568 179.333,577.168L179.333,588.767L454.333,588.767L454.333,572.459Z" style="fill:rgb(246,248,249);fill-rule:nonzero;"/>
            <rect x="184.716" y="302.126" width="430.568" height="7.905" style="fill:rgb(190,189,189);fill-rule:nonzero;"/>
            <rect x="184.716" y="286.317" width="430.568" height="7.904" style="fill:rgb(190,189,189);fill-rule:nonzero;"/>
            <rect x="190" y="294.221" width="420" height="7.905" style="fill:rgb(243,112,70);fill-rule:nonzero;"/>
            <rect x="190" y="294.221" width="420" height="3.953" style="fill:rgb(166,73,43);fill-rule:nonzero;"/>
            <rect x="537.185" y="377.775" width="24.093" height="9.369" style="fill:rgb(240,76,34);fill-rule:nonzero;"/>
            <rect x="567.605" y="377.775" width="24.094" height="9.369" style="fill:rgb(240,76,34);fill-rule:nonzero;"/>
            <rect x="552.494" y="362.177" width="24.094" height="9.37" style="fill:rgb(240,76,34);fill-rule:nonzero;"/>
            <rect x="579.652" y="509.24" width="24.094" height="9.37" style="fill:rgb(240,76,34);fill-rule:nonzero;"/>
            <rect x="594.962" y="493.643" width="24.093" height="9.369" style="fill:rgb(240,76,34);fill-rule:nonzero;"/>
            <rect x="225.02" y="377.775" width="24.093" height="9.369" style="fill:rgb(240,76,34);fill-rule:nonzero;"/>
            <rect x="255.44" y="377.775" width="24.094" height="9.369" style="fill:rgb(240,76,34);fill-rule:nonzero;"/>
            <rect x="240.329" y="362.177" width="24.094" height="9.37" style="fill:rgb(240,76,34);fill-rule:nonzero;"/>
            <rect x="270.75" y="362.177" width="24.093" height="9.37" style="fill:rgb(240,76,34);fill-rule:nonzero;"/>
            <rect x="298.106" y="555.689" width="24.093" height="9.369" style="fill:rgb(240,76,34);fill-rule:nonzero;"/>
            <rect x="387.953" y="540.091" width="24.094" height="9.37" style="fill:rgb(240,76,34);fill-rule:nonzero;"/>
            <rect x="267.685" y="555.689" width="24.094" height="9.369" style="fill:rgb(240,76,34);fill-rule:nonzero;"/>
            <rect x="282.796" y="540.091" width="24.094" height="9.37" style="fill:rgb(240,76,34);fill-rule:nonzero;"/>
            <rect x="252.376" y="540.091" width="24.093" height="9.37" style="fill:rgb(240,76,34);fill-rule:nonzero;"/>
            <rect x="181.225" y="458.907" width="17.413" height="9.37" style="fill:rgb(240,76,34);fill-rule:nonzero;"/>
            <rect x="192.29" y="443.309" width="17.412" height="9.37" style="fill:rgb(240,76,34);fill-rule:nonzero;"/>
            <path d="M575,421.331C574.007,421.331 573.203,422.136 573.203,423.128L573.203,436.843C573.203,437.836 574.007,438.64 575,438.64C575.993,438.64 576.797,437.836 576.797,436.843L576.797,423.128C576.797,422.136 575.993,421.331 575,421.331Z" style="fill:rgb(246,248,249);fill-rule:nonzero;"/>
            <path d="M575,543.92C574.007,543.92 573.203,544.725 573.203,545.717L573.203,559.432C573.203,560.424 574.007,561.229 575,561.229C575.993,561.229 576.797,560.424 576.797,559.432L576.797,545.717C576.797,544.725 575.993,543.92 575,543.92Z" style="fill:rgb(246,248,249);fill-rule:nonzero;"/>
            <rect x="382.521" y="377.775" width="12.046" height="9.369" style="fill:rgb(240,76,34);fill-rule:nonzero;"/>
            <rect x="396.271" y="362.177" width="12.046" height="9.37" style="fill:rgb(240,76,34);fill-rule:nonzero;"/>
            <rect x="364.033" y="362.177" width="24.093" height="9.37" style="fill:rgb(240,76,34);fill-rule:nonzero;"/>
            <rect x="201.859" y="539.437" width="12.046" height="9.37" style="fill:rgb(240,76,34);fill-rule:nonzero;"/>
            <rect x="181.371" y="523.839" width="24.093" height="9.37" style="fill:rgb(240,76,34);fill-rule:nonzero;"/>
            <rect x="583.5" y="447.605" width="17.391" height="9.369" style="fill:rgb(240,76,34);fill-rule:nonzero;"/>
            <rect x="423.503" y="418.255" width="12.164" height="9.37" style="fill:rgb(240,76,34);fill-rule:nonzero;"/>
            <rect x="429.585" y="431.757" width="12.164" height="9.369" style="fill:rgb(240,76,34);fill-rule:nonzero;"/>
            <path d="M224.156,344.006C224.156,357.879 235.403,369.126 249.276,369.126C263.15,369.126 274.397,357.879 274.397,344.006L274.397,328.337L224.156,328.337L224.156,344.006Z" style="fill:rgb(225,225,224);fill-rule:nonzero;"/>
            <path d="M324.638,344.006C324.638,357.879 335.885,369.126 349.759,369.126C363.633,369.126 374.879,357.879 374.879,344.006L374.879,328.337L324.638,328.337L324.638,344.006Z" style="fill:rgb(225,225,224);fill-rule:nonzero;"/>
            <path d="M425.121,344.006C425.121,357.879 436.367,369.126 450.241,369.126C464.115,369.126 475.362,357.879 475.362,344.006L475.362,328.337L425.121,328.337L425.121,344.006Z" style="fill:rgb(225,225,224);fill-rule:nonzero;"/>
            <path d="M525.603,328.337L525.603,344.006C525.603,357.879 536.85,369.126 550.724,369.126C564.598,369.126 575.844,357.879 575.844,344.006L575.844,328.337L525.603,328.337Z" style="fill:rgb(225,225,224);fill-rule:nonzero;"/>
            <path d="M224.156,328.337L274.397,328.337L280.398,310.031L232.557,310.031L224.156,328.337Z" style="fill:rgb(239,239,240);fill-rule:nonzero;"/>
            <path d="M324.638,328.337L374.879,328.337L376.08,310.031L328.239,310.031L324.638,328.337Z" style="fill:rgb(239,239,240);fill-rule:nonzero;"/>
            <path d="M423.921,310.031L425.121,328.337L475.362,328.337L471.761,310.031L423.921,310.031Z" style="fill:rgb(239,239,240);fill-rule:nonzero;"/>
            <path d="M567.443,310.031L519.602,310.031L525.603,328.337L575.844,328.337L567.443,310.031Z" style="fill:rgb(239,239,240);fill-rule:nonzero;"/>
            <path d="M173.914,344.006C173.914,357.879 185.161,369.126 199.035,369.126C212.909,369.126 224.156,357.879 224.156,344.006L224.156,328.337L173.914,328.337L173.914,344.006Z" style="fill:rgb(213,46,46);fill-rule:nonzero;"/>
            <path d="M274.397,344.006C274.397,357.879 285.644,369.126 299.518,369.126C313.391,369.126 324.638,357.879 324.638,344.006L324.638,328.337L274.397,328.337L274.397,344.006Z" style="fill:rgb(213,46,46);fill-rule:nonzero;"/>
            <path d="M374.879,344.006C374.879,357.879 386.126,369.126 400,369.126C413.874,369.126 425.121,357.879 425.121,344.006L425.121,328.337L374.879,328.337L374.879,344.006Z" style="fill:rgb(213,46,46);fill-rule:nonzero;"/>
            <path d="M475.362,344.006C475.362,357.879 486.609,369.126 500.482,369.126C514.356,369.126 525.603,357.879 525.603,344.006L525.603,328.337L475.362,328.337L475.362,344.006Z" style="fill:rgb(213,46,46);fill-rule:nonzero;"/>
            <path d="M575.844,328.337L575.844,344.006C575.844,357.879 587.091,369.126 600.965,369.126C614.839,369.126 626.086,357.879 626.086,344.006L626.086,328.337L575.844,328.337Z" style="fill:rgb(213,46,46);fill-rule:nonzero;"/>
            <path d="M173.914,328.337L224.156,328.337L232.557,310.031L184.716,310.031L173.914,328.337Z" style="fill:rgb(231,58,52);fill-rule:nonzero;"/>
            <path d="M274.397,328.337L324.638,328.337L328.239,310.031L280.398,310.031L274.397,328.337Z" style="fill:rgb(231,58,52);fill-rule:nonzero;"/>
            <path d="M376.08,310.031L374.879,328.337L425.121,328.337L423.921,310.031L376.08,310.031Z" style="fill:rgb(231,58,52);fill-rule:nonzero;"/>
            <path d="M471.761,310.031L475.362,328.337L525.603,328.337L519.602,310.031L471.761,310.031Z" style="fill:rgb(231,58,52);fill-rule:nonzero;"/>
            <path d="M615.284,310.031L567.443,310.031L575.844,328.337L626.086,328.337L615.284,310.031Z" style="fill:rgb(231,58,52);fill-rule:nonzero;"/>
            <rect x="189.932" y="393.793" width="12.774" height="9.37" style="fill:rgb(240,76,34);fill-rule:nonzero;"/>
            <rect x="219.091" y="395.793" width="204.412" height="124.001" style="fill:rgb(62,39,35);fill-rule:nonzero;"/>
            <rect x="226.257" y="402.96" width="190.079" height="109.666" style="fill:rgb(127,204,196);fill-rule:nonzero;"/>
            <path d="M416.333,435.32L416.333,452.29L367.003,402.96L383.973,402.96L416.333,435.32Z" style="fill:rgb(179,224,220);fill-rule:nonzero;"/>
            <path d="M416.333,457.009L416.333,465.49L353.803,402.96L362.293,402.96L416.333,457.009Z" style="fill:rgb(179,224,220);fill-rule:nonzero;"/>
            <path d="M416.333,495.66L416.333,512.63L399.363,512.63L289.693,402.96L323.633,402.96L416.333,495.66Z" style="fill:rgb(179,224,220);fill-rule:nonzero;"/>
            <path d="M416.336,406.793L387.806,406.793L383.973,402.96L416.336,402.96L416.336,406.793ZM370.836,406.793L366.126,406.793L362.293,402.96L367.003,402.96L370.836,406.793ZM357.636,406.793L327.466,406.793L323.633,402.96L353.803,402.96L357.636,406.793ZM293.526,406.793L226.257,406.793L226.257,402.96L289.693,402.96L293.526,406.793Z" style="fill:rgb(105,169,162);fill-rule:nonzero;"/>
            <path d="M387.806,406.793L370.836,406.793L367.003,402.96L383.973,402.96L387.806,406.793Z" style="fill:rgb(147,184,182);fill-rule:nonzero;"/>
            <path d="M366.126,406.793L357.636,406.793L353.803,402.96L362.293,402.96L366.126,406.793Z" style="fill:rgb(147,184,182);fill-rule:nonzero;"/>
            <path d="M327.466,406.793L293.526,406.793L289.693,402.96L323.633,402.96L327.466,406.793Z" style="fill:rgb(147,184,182);fill-rule:nonzero;"/>
            <rect x="208.45" y="519.794" width="225.694" height="23.332" style="fill:rgb(251,253,253);fill-rule:nonzero;"/>
            <path d="M420.149,506.126L222.445,506.126C217.208,506.126 212.964,510.371 212.964,515.608L212.964,519.794L429.63,519.794L429.63,515.608C429.63,510.371 425.385,506.126 420.149,506.126Z" style="fill:rgb(46,125,61);fill-rule:nonzero;"/>
            <rect x="208.45" y="519.794" width="225.69" height="4.999" style="fill:rgb(239,239,240);fill-rule:nonzero;"/>
            <path d="M429.606,515.126L212.988,515.126C212.98,515.287 212.964,515.445 212.964,515.608L212.964,519.794L429.63,519.794L429.63,515.608C429.63,515.445 429.614,515.287 429.606,515.126Z" style="fill:rgb(27,95,47);fill-rule:nonzero;"/>
            <path d="M454.33,588.77L254.09,588.77L254.088,588.767L454.333,588.767L454.33,588.77Z" style="fill:rgb(44,44,44);fill-rule:nonzero;"/>
            <path d="M454.333,572.459L237.78,572.459L213.905,548.585L213.905,543.13L252.376,543.13L252.376,549.461L276.469,549.461L276.469,543.13L282.796,543.13L282.796,549.461L306.89,549.461L306.89,543.13L387.953,543.13L387.953,549.461L412.047,549.461L412.047,543.13L434.14,543.13L434.14,543.126L434.144,543.126L434.144,519.794L454.33,539.98L454.33,572.459M298.106,555.689L298.106,565.058L322.199,565.058L322.199,555.689L298.106,555.689ZM267.685,555.689L267.685,565.058L291.779,565.058L291.779,555.689L267.685,555.689Z" style="fill:rgb(166,73,43);fill-rule:nonzero;"/>
            <path d="M454.333,588.767L254.088,588.767L237.78,572.459L454.333,572.459L454.33,588.767" style="fill:rgb(160,159,160);fill-rule:nonzero;"/>
            <rect x="298.106" y="555.689" width="24.093" height="9.369" style="fill:rgb(165,50,34);fill-rule:nonzero;"/>
            <rect x="387.953" y="543.13" width="24.094" height="6.331" style="fill:rgb(165,50,34);fill-rule:nonzero;"/>
            <rect x="267.685" y="555.689" width="24.094" height="9.369" style="fill:rgb(165,50,34);fill-rule:nonzero;"/>
            <rect x="282.796" y="543.13" width="24.094" height="6.331" style="fill:rgb(165,50,34);fill-rule:nonzero;"/>
            <rect x="252.376" y="543.13" width="24.093" height="6.331" style="fill:rgb(165,50,34);fill-rule:nonzero;"/>
            <path d="M213.905,548.585L208.45,543.13L213.905,543.13L213.905,548.585Z" style="fill:rgb(165,50,34);fill-rule:nonzero;"/>
            <path d="M434.144,519.794L434.14,519.789L434.143,519.794" style="fill:rgb(166,73,43);fill-rule:nonzero;"/>
            <path d="M434.144,543.126L434.14,524.793L434.14,519.794L434.144,519.794L434.144,543.126Z" style="fill:rgb(163,163,163);fill-rule:nonzero;"/>
            <path d="M434.14,524.793L434.14,519.794L434.14,524.793Z" style="fill:rgb(155,155,155);fill-rule:nonzero;"/>
            <path d="M621.843,184.96L178.157,184.96C171.212,184.96 165.582,190.59 165.582,197.534L165.582,266.072C165.582,273.017 171.212,278.646 178.157,278.646L621.843,278.646C628.788,278.646 634.418,273.017 634.418,266.072L634.418,197.534C634.418,190.59 628.788,184.96 621.843,184.96Z" style="fill:rgb(62,39,35);fill-rule:nonzero;"/>
            <path d="M619.048,192.39L180.952,192.39C176.49,192.39 172.872,196.008 172.872,200.47L172.872,263.136C172.872,267.598 176.49,271.216 180.952,271.216L619.048,271.216C623.51,271.216 627.128,267.598 627.128,263.136L627.128,200.47C627.128,196.008 623.51,192.39 619.048,192.39Z" style="fill:rgb(17,137,123);fill-rule:nonzero;"/>
            <path d="M627.123,201.373L172.877,201.373L172.877,200.471C172.877,196.012 176.486,192.394 180.954,192.394L619.046,192.394C623.515,192.394 627.123,196.012 627.123,200.471L627.123,201.373Z" style="fill:rgb(9,113,102);fill-rule:nonzero;"/>
            <path d="M304.959,253.943C306.714,251.624 307.592,248.677 307.592,245.104C307.592,241.342 306.276,238.27 303.705,235.888C302.702,234.948 301.699,234.195 300.696,233.694C299.63,233.255 298.815,232.879 298.251,232.628L297.248,232.189C296.496,231.876 295.806,231.562 295.116,231.123C294.427,230.747 293.8,230.246 293.236,229.681C292.671,229.117 292.233,228.49 291.919,227.675C291.606,226.923 291.418,225.983 291.418,224.917C291.418,224.478 291.48,223.851 291.543,223.036C291.606,222.221 291.856,221.406 292.233,220.591C292.546,219.776 293.048,219.086 293.737,218.522C294.427,217.958 295.367,217.645 296.558,217.645C296.997,217.645 297.499,217.707 298.063,217.77C298.627,217.833 299.191,218.083 299.756,218.522C300.32,218.961 300.759,219.713 301.135,220.716C301.448,221.719 301.636,223.099 301.636,224.917L301.636,227.863L307.592,227.863L307.592,224.917C307.592,220.842 306.714,217.645 304.896,215.325C304.207,214.51 303.266,213.695 301.95,212.88C300.633,212.065 298.815,211.689 296.558,211.689C294.928,211.689 293.424,212.002 292.107,212.629C290.728,213.319 289.537,214.196 288.596,215.325C287.593,216.516 286.841,217.895 286.34,219.525C285.775,221.155 285.525,222.973 285.525,224.917C285.525,228.678 286.778,231.75 289.286,234.195C290.289,235.136 291.292,235.888 292.358,236.389C293.361,236.954 294.176,237.33 294.866,237.643L295.994,238.145C296.684,238.458 297.311,238.772 298,239.085C298.69,239.461 299.254,239.9 299.818,240.402C300.383,240.966 300.821,241.593 301.135,242.345C301.448,243.097 301.636,244.038 301.636,245.104C301.636,245.731 301.574,246.42 301.511,247.235C301.386,248.05 301.135,248.802 300.821,249.492C300.445,250.182 299.944,250.809 299.254,251.247C298.564,251.749 297.687,252 296.558,252C295.367,252 294.552,251.812 293.988,251.498C293.424,251.185 293.048,250.934 292.859,250.621C291.919,249.429 291.418,247.486 291.418,244.79L291.418,241.844L285.525,241.844L285.525,244.79C285.525,248.928 286.402,252.125 288.22,254.319C290.101,256.702 292.859,257.893 296.558,257.893C300.132,257.893 302.89,256.576 304.959,253.943Z" style="fill:rgb(251,253,253);fill-rule:nonzero;"/>
            <path d="M361.632,211.689L335.489,211.689L335.489,217.645L345.583,217.645L345.583,257.893L351.539,257.893L351.539,217.645L361.632,217.645L361.632,211.689Z" style="fill:rgb(251,253,253);fill-rule:nonzero;"/>
            <path d="M405.83,256.702C407.146,255.887 408.086,255.072 408.776,254.257C410.531,252 411.409,248.802 411.409,244.727L411.409,224.854C411.409,220.779 410.531,217.582 408.776,215.325C408.086,214.51 407.146,213.695 405.83,212.88C404.513,212.065 402.695,211.689 400.438,211.689C399.31,211.689 398.306,211.814 397.429,212.002C396.551,212.253 395.799,212.566 395.109,212.88C394.42,213.256 393.793,213.632 393.354,214.071C392.852,214.51 392.413,214.886 392.1,215.325C390.345,217.582 389.467,220.779 389.467,224.854L389.467,244.727C389.467,248.802 390.345,252 392.1,254.257C392.79,255.072 393.793,255.887 395.109,256.702C396.426,257.517 398.244,257.893 400.438,257.893C402.695,257.893 404.513,257.517 405.83,256.702ZM401.943,217.77C402.507,217.833 403.071,218.083 403.635,218.522C404.2,218.961 404.638,219.713 405.015,220.654C405.328,221.657 405.516,223.036 405.516,224.854L405.516,244.727C405.516,246.546 405.328,247.987 405.015,248.928C404.638,249.931 404.2,250.621 403.635,251.059C403.071,251.498 402.507,251.812 401.943,251.874C401.378,251.937 400.877,252 400.438,252C399.999,252 399.498,251.937 398.933,251.874C398.369,251.812 397.805,251.498 397.241,251.059C396.676,250.621 396.238,249.931 395.924,248.928C395.548,247.987 395.36,246.546 395.36,244.727L395.36,224.854C395.36,223.036 395.548,221.657 395.924,220.654C396.238,219.713 396.676,218.961 397.241,218.522C397.805,218.083 398.369,217.833 398.933,217.77C399.498,217.707 399.999,217.645 400.438,217.645C400.877,217.645 401.378,217.707 401.943,217.77Z" style="fill:rgb(251,253,253);fill-rule:nonzero;"/>
            <path d="M458.24,234.885C458.303,234.759 458.428,234.634 458.491,234.571C460.309,232.377 461.249,229.117 461.249,224.854C461.249,220.528 460.309,217.331 458.491,215.2C456.485,212.88 453.476,211.689 449.526,211.689L439.934,211.689L439.934,257.893L445.827,257.893L445.827,238.145L449.526,238.145C453.476,238.145 455.419,240.151 455.419,244.226L455.419,257.893L461.375,257.893L461.375,244.226C461.375,242.282 461.061,240.59 460.497,239.085C459.87,237.581 458.993,236.264 457.864,235.198C457.99,235.136 458.115,235.01 458.24,234.885ZM449.526,232.189L445.827,232.189L445.827,217.645L449.526,217.645C450.466,217.645 451.344,217.707 452.096,217.895C452.786,218.083 453.413,218.397 453.915,218.898C454.353,219.463 454.73,220.152 454.98,221.093C455.231,222.033 455.356,223.287 455.356,224.854C455.356,227.613 454.918,229.556 453.977,230.747C453.789,230.935 453.413,231.249 452.849,231.625C452.222,232.001 451.093,232.189 449.526,232.189Z" style="fill:rgb(251,253,253);fill-rule:nonzero;"/>
            <path d="M510.274,217.645L510.274,211.751L491.153,211.751L491.153,257.955L510.274,257.955L510.274,252.062L497.046,252.062L497.046,237.769L510.274,237.769L510.274,231.876L497.046,231.876L497.046,217.645L510.274,217.645Z" style="fill:rgb(251,253,253);fill-rule:nonzero;"/>
            <rect x="215.903" y="278.646" width="7.5" height="7.671" style="fill:rgb(32,32,32);fill-rule:nonzero;"/>
            <rect x="576.597" y="278.646" width="7.5" height="7.671" style="fill:rgb(32,32,32);fill-rule:nonzero;"/>
        </g>
    </g>
</svg>
